<svg width="29" height="30" fill="none" xmlns="http://www.w3.org/2000/svg"><path d="M28.371 24.14l-.195 1.114c-.469.039-.88.058-1.23.058-.509 0-1.12-.039-1.837-.117-1.224-.13-1.998-.195-2.324-.195-.547 0-1.387.085-2.52.254a24.198 24.198 0 001.016-3.203c.196-.794.404-2.162.625-4.102-1.523-.013-3.886.02-7.09.098-3.307 5.052-5.735 8.223-7.285 9.512-1.536 1.302-3.001 1.953-4.394 1.953-.73 0-1.27-.143-1.621-.43-.365-.273-.547-.631-.547-1.074 0-.339.104-.619.312-.84.209-.221.469-.332.782-.332.182 0 .43.033.742.098.78.182 1.302.273 1.562.273.873 0 1.836-.495 2.89-1.484 1.72-1.615 4.259-5 7.618-10.157 3.802-5.833 6.881-10.078 9.238-12.734-3.216.286-5.221.56-6.015.82-1.094.352-1.914.873-2.461 1.563-.547.69-.82 1.393-.82 2.11 0 .234.084.566.253.995.183.482.274.834.274 1.055 0 .286-.11.54-.332.762a1.091 1.091 0 01-.801.332c-.443 0-.8-.163-1.074-.489-.26-.338-.39-.84-.39-1.503 0-.938.24-1.843.722-2.715.495-.886 1.198-1.621 2.11-2.207.91-.6 2.05-1.055 3.417-1.368.703-.169 1.94-.319 3.711-.449 1.537-.13 2.5-.254 2.89-.37.613-.17 1.199-.502 1.758-.997-.39 1.602-.67 3.001-.84 4.2l-1.523 11.288-.879 8.086c.964.248 1.83.371 2.598.371.508 0 1.061-.058 1.66-.175zm-6.289-7.636c.625-5.287 1.25-9.147 1.875-11.582-1.654 2.187-2.676 3.568-3.066 4.14l-5.02 7.442c1.08.039 2.624.058 4.629.058.495 0 1.022-.019 1.582-.058z" fill="#fff"/></svg>