<svg width="74" height="74" fill="none" xmlns="http://www.w3.org/2000/svg"><path d="M32.116 48.348a1.13 1.13 0 01-1.03-.6.884.884 0 01.241-1.06l9.121-7.95a2.662 2.662 0 000-4.127l-9.12-7.95a.885.885 0 010-1.376 1.236 1.236 0 011.577 0l9.121 7.95a4.44 4.44 0 010 6.878l-9.12 7.95a1.2 1.2 0 01-.79.285z" fill="#fff"/><path d="M48.939 59.57l-.053.03a26.38 26.38 0 01-5.868 2.486 26.164 26.164 0 01-6.735 1.01 26.45 26.45 0 01-6.453-.677l-.023-.006-.045-.01-.068-.016-.185-.045-.052-.012-.078-.02-.083-.02-.018-.005-.039-.01-.07-.018-.07-.018-.022-.006-.096-.026h-.004l-.026-.008-.168-.045-.006-.002-.043-.012-.013-.003-.016-.005h-.002a26.373 26.373 0 01-8.763-4.312 26.057 26.057 0 01-6.954-7.882l-.005-.009-.006-.009v-.002l-.005-.007v-.001l-.005-.008V49.9l-.005-.008-.002-.002c0-.003-.002-.005-.004-.008l-.005-.009-.005-.009-.005-.009a2.701 2.701 0 01-.017-.03l-.004-.006-.002-.003c0-.003-.002-.004-.003-.007l-.001-.002-.004-.007-.005-.009-.002-.002-.004-.007v-.001a1.492 1.492 0 00-.01-.017v-.001l-.005-.009-.005-.009-.006-.009-.005-.01-.005-.008-.01-.019-.005-.009-.005-.01-.041-.072-.006-.01-.02-.036a21.79 21.79 0 01-.086-.157l-.03-.055-.005-.01a.376.376 0 00-.005-.009l-.005-.009a32.6 32.6 0 01-.054-.101.245.245 0 01-.005-.01l-.005-.009-.005-.01a6.95 6.95 0 01-.014-.027l-.025-.046-.01-.019-.005-.009-.005-.01-.01-.018c0-.003-.003-.006-.004-.009l-.005-.01-.005-.008-.005-.01-.004-.009-.005-.01-.005-.008v-.001l-.005-.009-.005-.009-.005-.01a.677.677 0 00-.004-.008v-.001l-.005-.009-.005-.009-.005-.01-.005-.008v-.001l-.004-.009-.005-.009-.005-.01-.005-.008v-.002l-.005-.008-.004-.009v-.001l-.005-.008v-.001l-.005-.009-.005-.009-.004-.01-.005-.008v-.002l-.005-.008v-.001l-.005-.008v-.001l-.004-.008-.001-.002-.004-.007v-.002a.278.278 0 01-.005-.008v-.001l-.005-.008v-.001l-.004-.008v-.002l-.005-.008-.005-.009v-.001l-.004-.008-.001-.002-.004-.007v-.002l-.005-.008v-.001l-.005-.008v-.001a.298.298 0 00-.004-.008v-.002l-.005-.008v-.001a.298.298 0 00-.005-.008v-.001a.313.313 0 00-.004-.008v-.001l-.005-.009-.005-.009v-.001a.298.298 0 01-.004-.008v-.001l-.005-.009-.005-.009a.329.329 0 00-.004-.01l-.005-.008v-.002a.298.298 0 00-.005-.008v-.001a.298.298 0 01-.005-.01l-.004-.007v-.002a.283.283 0 01-.005-.008l-.004-.009v-.001a.298.298 0 00-.005-.008v-.002l-.004-.008-.001-.001-.004-.008v-.001a.283.283 0 01-.005-.008v-.002l-.004-.008h-.001l-.004-.009v-.002l-.004-.007-.001-.002-.004-.007v-.002l-.005-.008v-.001l-.004-.008-.001-.002-.004-.007v-.002a.178.178 0 00-.005-.01l-.004-.007v-.001l-.005-.008v-.002a.283.283 0 01-.004-.008v-.001l-.005-.008v-.002l-.004-.007-.001-.002-.004-.008v-.001l-.004-.008-.001-.002-.004-.007v-.002l-.005-.008v-.001l-.004-.008v-.002l-.005-.007v-.002l-.004-.008-.001-.001-.004-.008v-.002l-.004-.007-.001-.002-.004-.008V48.3l-.004-.008-.001-.002-.004-.007v-.002l-.004-.008-.001-.002-.004-.007v-.002l-.004-.007-.001-.002a.16.16 0 01-.004-.008v-.002l-.004-.007-.001-.002-.004-.007v-.002l-.004-.008-.001-.002a.173.173 0 01-.004-.007v-.002l-.004-.007-.001-.003-.004-.007v-.002a.247.247 0 01-.004-.007l-.001-.002-.004-.008v-.001l-.004-.008-.001-.002-.004-.007v-.002l-.004-.007-.001-.003-.004-.007v-.002l-.004-.007v-.002l-.004-.008-.001-.002-.004-.007v-.002a.256.256 0 00-.004-.007l-.001-.002-.004-.008v-.002a.242.242 0 00-.004-.007l-.001-.002-.004-.007v-.003l-.004-.007v-.002L12 48.05l-.002-.003-.003-.006v-.003l-.004-.007-.001-.002-.003-.007-.002-.002c0-.003-.002-.005-.003-.007l-.001-.003-.003-.007-.001-.002-.004-.007v-.003a.442.442 0 01-.005-.009l-.003-.007-.002-.003-.003-.006-.001-.003-.003-.007-.001-.002-.004-.007v-.002l-.004-.007-.001-.003-.003-.007-.001-.002-.004-.007v-.003a.442.442 0 01-.005-.009l-.003-.007-.002-.003a.417.417 0 00-.004-.009l-.003-.006-.001-.003-.003-.007-.002-.003-.003-.006-.001-.003a.184.184 0 00-.003-.007l-.001-.003-.003-.006-.002-.003a.399.399 0 00-.003-.006v-.003l-.004-.007a.165.165 0 00-.004-.01l-.002-.002a.117.117 0 01-.003-.007l-.001-.003-.003-.006a.042.042 0 01-.001-.003l-.003-.006a.048.048 0 01-.002-.004l-.002-.006a.165.165 0 00-.004-.01l-.002-.002-.003-.006-.002-.004-.002-.006-.002-.003-.002-.006-.002-.004a.337.337 0 00-.003-.006l-.001-.003a.165.165 0 01-.003-.006l-.002-.003-.002-.006-.002-.004a.154.154 0 01-.003-.006l-.001-.003-.003-.006-.001-.004-.003-.006-.002-.003-.002-.006-.002-.003-.003-.006a.098.098 0 00-.001-.004l-.003-.006a.352.352 0 01-.004-.01l-.002-.002-.002-.006-.002-.004-.002-.006a.337.337 0 01-.004-.01l-.002-.003-.003-.006-.002-.003-.002-.006-.002-.004-.002-.005-.002-.004-.003-.006a.057.057 0 00-.001-.004l-.003-.005-.001-.004-.003-.006-.002-.003a.33.33 0 01-.002-.006l-.002-.004-.003-.006-.001-.003-.003-.006-.001-.003-.003-.006-.002-.004a.308.308 0 01-.002-.006l-.002-.004-.002-.005-.002-.004-.002-.006-.002-.003-.003-.006-.001-.004a.33.33 0 01-.003-.006l-.001-.003-.003-.006-.002-.004-.002-.005-.002-.004-.002-.006-.002-.004-.002-.005-.002-.004-.002-.006-.002-.004a.094.094 0 00-.003-.005l-.001-.004-.003-.005c0-.002 0-.003-.002-.004l-.002-.006-.002-.004-.002-.005-.002-.004a.091.091 0 01-.004-.01l-.002-.005-.002-.004-.002-.005-.002-.005-.002-.005-.002-.004c0-.002-.002-.004-.003-.005l-.001-.004-.003-.006c0-.001 0-.003-.002-.004l-.002-.005-.002-.004-.002-.006-.002-.004-.002-.005-.002-.004-.002-.006-.002-.004-.002-.005-.002-.004-.002-.005-.002-.005-.002-.005-.002-.004-.002-.005-.002-.005a.1.1 0 01-.002-.005l-.002-.004-.002-.005a.095.095 0 00-.002-.005l-.002-.004-.002-.005-.002-.005a.1.1 0 00-.003-.005c0-.001 0-.003-.002-.004 0-.002 0-.003-.002-.005 0-.002 0-.003-.002-.005 0-.001 0-.003-.002-.005l-.002-.004-.002-.005a.098.098 0 00-.002-.005l-.002-.004-.002-.005-.002-.005-.002-.004-.002-.005-.002-.005-.002-.005-.002-.004a.106.106 0 00-.002-.005l-.002-.005-.002-.005-.002-.004-.002-.005-.002-.005a.106.106 0 01-.004-.01l-.002-.004-.002-.005a.072.072 0 01-.002-.005l-.002-.004-.002-.005-.002-.005-.002-.004-.002-.005-.002-.005-.002-.004-.002-.006a.074.074 0 01-.002-.004l-.002-.005-.002-.004-.002-.005-.002-.005a.128.128 0 00-.002-.005l-.002-.004-.002-.005-.002-.005a.081.081 0 00-.004-.009l-.002-.005c0-.002 0-.003-.002-.004l-.002-.006-.001-.004a.138.138 0 01-.003-.005l-.001-.004a.138.138 0 00-.003-.006l-.001-.004a.138.138 0 01-.003-.005l-.001-.004-.003-.006-.001-.004-.003-.005-.001-.004a.128.128 0 01-.002-.006l-.002-.004-.002-.005-.002-.004-.002-.006-.002-.004-.002-.005-.002-.004-.002-.006-.002-.003-.002-.006-.002-.004a.359.359 0 00-.002-.006l-.002-.003-.002-.006-.001-.004a.382.382 0 00-.004-.01l-.003-.005-.001-.003-.003-.007-.001-.003a.414.414 0 00-.003-.006v-.003a.414.414 0 01-.004-.007v-.003l-.003-.006-.002-.003a.414.414 0 01-.002-.007l-.002-.003-.002-.006-.001-.003-.003-.007-.001-.003-.003-.006-.001-.003-.003-.007-.001-.002c0-.003-.002-.005-.003-.007v-.003l-.004-.007v-.003l-.003-.006-.002-.003-.002-.007-.001-.002-.003-.007-.001-.003-.003-.007-.001-.002-.003-.007v-.003a.336.336 0 00-.004-.007v-.002l-.003-.007-.001-.003a.217.217 0 01-.003-.007l-.001-.002a.15.15 0 01-.003-.007l-.001-.003-.003-.007v-.002l-.004-.007v-.003a.217.217 0 00-.004-.007v-.002l-.003-.007-.001-.003a.221.221 0 01-.003-.007l-.001-.002a.234.234 0 00-.003-.007v-.003a.221.221 0 00-.004-.007v-.002a.209.209 0 00-.004-.007v-.003c-.002-.002-.002-.005-.003-.007l-.001-.002-.003-.007v-.002l-.004-.008v-.002l-.004-.008v-.001l-.004-.008v-.002l-.003-.008v-.001l-.004-.008v-.002a.657.657 0 00-.004-.008v-.001l-.004-.008v-.002l-.003-.008v-.001l-.004-.008v-.002l-.004-.008v-.001l-.003-.008-.001-.002-.003-.008v-.001l-.004-.008v-.001a.72.72 0 00-.004-.009v-.001a.72.72 0 01-.004-.009l-.003-.009v-.001l-.004-.008V46.4a.288.288 0 01-.003-.008l-.001-.001-.003-.008v-.001l-.004-.009v-.001l-.004-.008v-.001l-.003-.009v-.001l-.004-.009-.004-.009v-.001l-.004-.009-.003-.01a1.39 1.39 0 00-.008-.018l-.007-.02a1.036 1.036 0 01-.007-.019l-.007-.019a25.797 25.797 0 01-1.328-4.842c0-.007-.002-.013-.003-.02l-.002-.01-.001-.01-.004-.02-.001-.009-.002-.01-.002-.01-.001-.01-.002-.009-.001-.01-.002-.01-.005-.029-.002-.01-.001-.01-.002-.01-.001-.009V41.2a1.565 1.565 0 00-.005-.028l-.002-.01-.001-.009v-.001l-.002-.009v-.002l-.001-.007v-.003l-.002-.007v-.003l-.002-.007v-.002l-.001-.008v-.002l-.002-.008v-.002l-.001-.007v-.003l-.002-.007v-.003l-.001-.007v-.003l-.002-.007v-.003l-.001-.006-.001-.004-.001-.006v-.003l-.002-.007v-.003a.999.999 0 00-.005-.03v-.006l-.001-.004-.001-.006v-.004l-.002-.005v-.005l-.001-.005a.553.553 0 00-.002-.01v-.005a.683.683 0 01-.003-.015v-.005l-.001-.005v-.004l-.002-.005v-.005l-.001-.005v-.005l-.002-.005v-.005l-.001-.005v-.005l-.002-.005v-.005l-.001-.004v-.006l-.002-.004v-.006l-.001-.004v-.005l-.001-.005-.001-.005v-.004l-.002-.007v-.003l-.001-.007V40.8l-.002-.006v-.004l-.001-.006v-.004a1.056 1.056 0 01-.002-.01l-.001-.007v-.002l-.002-.007v-.003a1.432 1.432 0 00-.003-.018v-.001l-.001-.01-.001-.008a.124.124 0 00-.002-.01v-.002l-.001-.009-.002-.01-.001-.01-.002-.01c-.9-6.33.585-12.782 4.108-18.081l.006-.008.011-.017a.341.341 0 00.005-.008l.001-.001.005-.007.01-.017h.002l.004-.008.002-.002c0-.002.002-.004.004-.006v-.002l.005-.006.001-.002.005-.007.001-.001.004-.007.002-.001a.463.463 0 01.01-.015v-.001l.005-.007.001-.002.004-.006.003-.004c0-.002.002-.002.003-.005l.002-.003.003-.005.003-.003c0-.002.002-.004.003-.005l.003-.004.002-.004.003-.004.003-.004.002-.004.004-.005.002-.003.003-.005.003-.005c.001-.001.002-.001.002-.003a.282.282 0 01.004-.005l.002-.003a.177.177 0 01.004-.005c0-.002 0-.002.002-.003 0-.002.002-.004.004-.006l.001-.002.004-.006.002-.002.004-.007.001-.002.004-.006.002-.002.005-.008a25.865 25.865 0 011.634-2.146l.026-.03.006-.008.007-.008.006-.007a.433.433 0 00.006-.008h.001l.006-.007.006-.008.007-.008.006-.007h.001a.398.398 0 00.012-.014l.001-.002a.328.328 0 01.006-.007l.006-.007.001-.001a.386.386 0 01.006-.007l.006-.008h.001l.006-.007v-.001l.006-.007.001-.001.006-.006.001-.002.005-.006.002-.001a.147.147 0 00.006-.008l.005-.006.002-.002a.265.265 0 01.005-.005l.001-.002.005-.006.002-.002.005-.006.001-.001.005-.006.002-.002a.258.258 0 00.005-.006l.001-.001.006-.006.001-.002.005-.006.002-.002.005-.005.001-.002.005-.006.002-.002.005-.006.001-.001a.268.268 0 00.005-.006l.002-.002.005-.005.002-.003.004-.005.002-.002.005-.005.002-.003a.226.226 0 01.005-.005l.001-.002a.114.114 0 01.005-.005l.002-.003.005-.005.001-.002a.245.245 0 00.005-.006l.002-.002a.217.217 0 01.005-.005l.002-.002.004-.006c.001 0 .002 0 .003-.002a.1.1 0 00.004-.005l.002-.002.005-.006.002-.002.004-.005.002-.003.005-.005.002-.002a.096.096 0 00.004-.005l.003-.003.004-.005.002-.002.005-.005c0-.001 0-.002.002-.003l.004-.005.003-.003a.17.17 0 00.004-.004l.002-.003.004-.005.003-.002.004-.005.002-.003.005-.005.002-.003.004-.004.003-.003.004-.005.002-.002a.199.199 0 01.005-.005l.002-.003.004-.005.003-.003.004-.004.002-.003.005-.005.002-.002.004-.005.003-.003.004-.004c0-.002.001-.002.003-.004a.167.167 0 00.003-.004l.003-.003.004-.005.003-.003.004-.004.003-.003a.146.146 0 01.006-.008l.004-.004.003-.003.004-.004a.097.097 0 00.003-.004l.003-.004.003-.003.004-.004.003-.004.004-.004.003-.003.003-.004.003-.003a.13.13 0 00.007-.008l.004-.004.003-.004a.056.056 0 01.003-.003l.004-.004.003-.004.003-.004c.002 0 .003-.002.004-.003a.15.15 0 01.003-.004l.003-.003a.158.158 0 00.007-.008l.003-.004.004-.004a.116.116 0 00.003-.003l.003-.004.004-.004.003-.003.004-.004.003-.004.003-.004.004-.003c0-.002.002-.003.003-.004l.003-.003a.158.158 0 00.004-.005l.003-.003.004-.004.003-.003c0-.002.002-.003.003-.004l.004-.004.003-.004.003-.003.004-.004.003-.004.004-.004.003-.003.004-.004.003-.004.003-.004.003-.003.004-.004.003-.003.004-.005.003-.003.004-.004.003-.003.003-.004.003-.003.004-.005.003-.003a.092.092 0 01.007-.007c0-.002.003-.003.004-.005l.003-.003.004-.004.002-.003.005-.005.002-.002.004-.005.003-.003.004-.004.003-.003c0-.002.003-.003.004-.005l.002-.002.005-.005.002-.003.005-.005.002-.002.004-.005.003-.003.004-.004.002-.003a.237.237 0 01.005-.005l.002-.002.005-.005.002-.002.005-.005.002-.003.004-.005.003-.002.004-.005.002-.003.005-.005.002-.002a.207.207 0 01.005-.005l.002-.002.005-.005.002-.003a.207.207 0 01.005-.005l.002-.002a.237.237 0 01.005-.005l.002-.003.004-.004.003-.003a.218.218 0 01.004-.005l.002-.002a.237.237 0 00.005-.005l.002-.002a.116.116 0 01.005-.006l.002-.002a.237.237 0 00.005-.005l.002-.002.005-.005c0-.001 0-.002.002-.002l.005-.006.001-.002.005-.005.002-.002a.12.12 0 01.005-.005l.002-.002.005-.006.002-.002a.237.237 0 01.005-.005l.002-.002.005-.005.002-.002.005-.006.002-.002.005-.005.001-.002a.14.14 0 00.006-.005l.001-.002.006-.006.001-.001.005-.006.002-.002.005-.005.002-.002a.28.28 0 00.005-.006l.002-.001a.301.301 0 01.005-.006l.001-.001.006-.006.002-.002.005-.006.002-.001.005-.006.001-.001.006-.006.001-.002.006-.005.001-.002.006-.006.001-.002.005-.005.002-.002.005-.005.002-.002.005-.006.002-.001.005-.006.002-.001.005-.006.002-.002a.363.363 0 01.005-.006h.001l.006-.007.002-.001.005-.006.001-.002.006-.006h.001l.006-.007h.001l.006-.007.001-.001.006-.006V19l.007-.007.007-.007.007-.007.001-.001.006-.006v-.001l.007-.007.007-.007.007-.007v-.001a.193.193 0 00.007-.007l.007-.007.007-.007.007-.007v-.001l.007-.007.007-.007.014-.014.007-.008.007-.007.007-.007.007-.007.007-.007.007-.008.014-.014.014-.015.014-.014.028-.029.015-.014.014-.014.014-.015.014-.014.028-.029a26.033 26.033 0 012.268-2.036l.032-.025.008-.007.056-.044.065-.051.016-.013.016-.012.008-.007.008-.006.009-.006.008-.007.008-.006.008-.006.008-.007.008-.006.008-.006.008-.006.008-.007.008-.006h.001l.007-.006h.001l.008-.006v-.001l.008-.006.008-.006.008-.006.008-.007.008-.006.008-.006h.001l.007-.006.001-.001.008-.006.008-.006.008-.006.001-.001.007-.005.001-.001.007-.005.001-.002.007-.005h.001l.008-.006v-.001l.008-.005v-.001l.008-.006.008-.006h.001l.007-.006h.001l.008-.006v-.001l.008-.006a.372.372 0 01.016-.012l.001-.001.007-.005.001-.001a.333.333 0 01.016-.012l.008-.006h.001l.007-.006.001-.001.007-.005.002-.001.006-.006h.002a.402.402 0 01.015-.012l.001-.001a.39.39 0 00.007-.005l.002-.001.006-.005.002-.001a.39.39 0 01.006-.005l.002-.002a.297.297 0 00.007-.005h.001l.007-.006h.001l.007-.006.002-.001.006-.005.002-.002.007-.004.001-.002.007-.005h.002a.172.172 0 01.006-.006h.002a.287.287 0 01.006-.006l.002-.001a.161.161 0 01.008-.006L20 16.14h.001a.187.187 0 00.008-.006l.008-.006h.001l.007-.006h.001l.007-.006.002-.001a.425.425 0 01.007-.005v-.001l.008-.005.001-.001.007-.006h.002l.006-.006h.002l.006-.006.002-.001.007-.005.002-.001.006-.005.002-.001.006-.005.002-.002.007-.004.001-.002.007-.004.002-.002.006-.005h.002l.007-.006.002-.001.006-.005.002-.001.006-.005.002-.001.007-.005.002-.001.006-.005.002-.002a.285.285 0 00.006-.004l.002-.001.007-.005.001-.002.007-.005h.002a.425.425 0 00.006-.006h.002l.007-.006h.001l.007-.006.002-.001.006-.005.002-.001.007-.005.002-.001.006-.005.002-.001.007-.005.001-.001.007-.005.002-.002.006-.004.002-.002.007-.004.001-.002.007-.004.002-.002.006-.005h.002l.007-.006h.002l.006-.006.002-.001.006-.005.002-.001.007-.005.002-.001.006-.005.002-.001.007-.005.002-.001.006-.005.002-.002a.229.229 0 00.008-.005l.007-.005.002-.002.006-.004.002-.002.007-.004.002-.002.006-.004.002-.002.006-.004.003-.002.006-.004.002-.002.006-.004.002-.002.007-.004.002-.002.006-.004.002-.002.006-.004.003-.002.006-.004.002-.002.006-.004.003-.002.006-.004.002-.002.006-.004.002-.002.007-.004.002-.002.006-.004.002-.002.007-.004.002-.002.006-.004.002-.002.006-.004.003-.002.006-.004.002-.002a.344.344 0 01.006-.004l.003-.002.006-.004.002-.002.006-.004.003-.002.006-.004.002-.002.006-.004.003-.002.006-.004.002-.002.006-.004.003-.002.006-.004.002-.002.006-.004.003-.002.006-.004.002-.002.006-.004.003-.002.006-.004.002-.002a.302.302 0 00.009-.006l.006-.004.002-.002c.002 0 .005-.003.006-.004l.003-.002.006-.004.002-.002c.002 0 .005-.003.006-.004l.003-.002.006-.004.002-.001.006-.005c.001 0 .002 0 .003-.002l.006-.004.002-.001.006-.004a.272.272 0 01.009-.006l.002-.002.006-.004.003-.002.006-.004.002-.002.006-.004.003-.002.006-.004.002-.002c.002 0 .005-.003.006-.004l.003-.002.006-.004.003-.002.005-.004.003-.002a.114.114 0 00.009-.006l.006-.004.002-.002.006-.004.003-.001a.127.127 0 01.006-.005l.002-.001.006-.005.003-.001.006-.004.003-.002.006-.004.002-.002a.333.333 0 00.006-.004l.003-.002.006-.004.002-.002.006-.004.003-.002.006-.004.002-.002.006-.004.003-.001.006-.005.003-.001a.302.302 0 01.005-.004l.003-.002.006-.004.003-.002.006-.004.002-.002.006-.004.003-.002a.213.213 0 01.006-.004l.003-.002a.122.122 0 01.008-.005l.006-.005.003-.001.006-.004.002-.002.006-.004.003-.002.006-.004.003-.002.006-.004.002-.002.006-.004.003-.002.006-.004s.002 0 .003-.002a.599.599 0 01.006-.003l.002-.002.006-.004.003-.002.006-.004.002-.002.006-.004.003-.002.006-.004a.046.046 0 01.003-.002l.006-.004.003-.001.005-.004.003-.002.006-.004.003-.002a.2.2 0 01.006-.004l.002-.002.006-.004.003-.002.006-.004c.001 0 .002 0 .003-.002l.006-.003.003-.002.005-.004.003-.002.006-.004.003-.002.006-.004.003-.002.005-.004c.001 0 .002 0 .003-.002l.006-.003.003-.002.006-.004a.056.056 0 00.003-.002l.005-.004a.078.078 0 01.003-.002l.006-.004.003-.002.006-.004.003-.001.005-.004.003-.002.006-.004.003-.002.006-.004a.078.078 0 01.003-.002l.005-.004c.001 0 .002 0 .003-.002.003 0 .004-.002.006-.003l.003-.002.006-.004.003-.002.005-.004.004-.002.005-.004c.001 0 .002 0 .003-.002l.006-.003.003-.002.006-.004.003-.002.005-.004a.161.161 0 00.009-.006c.001 0 .002 0 .003-.002a.18.18 0 00.006-.003l.003-.002.006-.004.003-.002.005-.004.004-.002a.172.172 0 01.005-.003l.003-.002.006-.004.003-.002.006-.004.003-.002.005-.004.004-.002.005-.003.003-.002.006-.004.003-.002.006-.004.003-.002.005-.003.004-.003.005-.003.003-.002.006-.004.003-.002.006-.004.003-.002.005-.003.004-.002.005-.004.003-.002.006-.004.003-.002.006-.003.003-.002.006-.004.003-.002.005-.004c.002 0 .002 0 .003-.002l.006-.003.003-.002.006-.004.003-.002.006-.004.003-.002.006-.003.002-.002.006-.004c.002 0 .002-.001.003-.002l.006-.004.003-.002.006-.003a.063.063 0 01.003-.002l.006-.004.003-.002.006-.004.003-.002.005-.003.003-.002.006-.004.003-.002.006-.004.003-.002.006-.003.003-.002.006-.004.003-.002.005-.003.004-.003.005-.003.004-.002.005-.004.003-.002.006-.004.003-.001.006-.004.003-.002.006-.004.003-.002.005-.003.004-.002.005-.004.004-.002.005-.003.004-.003.005-.003.004-.002.005-.004a.099.099 0 00.009-.005l.004-.003.005-.003.003-.002.006-.004s.002 0 .003-.002a.274.274 0 01.006-.003l.003-.002.005-.004.004-.002.005-.003.004-.002.005-.004.004-.002a.246.246 0 00.005-.003l.004-.003.005-.003.004-.002.005-.004.003-.002.006-.003.003-.002.005-.004.004-.002.005-.003.004-.003a.146.146 0 01.009-.005l.005-.003.004-.003.005-.003.004-.002.005-.003.004-.003.005-.003.004-.002.005-.004.004-.002.005-.003.003-.002.006-.004.003-.002.006-.003.003-.003.006-.003.003-.002.005-.003.004-.003.005-.003.004-.002.005-.003.004-.003.005-.003.004-.002.005-.003.004-.003.005-.003.004-.002.005-.003.004-.003c.002 0 .004-.002.005-.003a.135.135 0 01.004-.002l.005-.003.004-.003a.156.156 0 01.005-.003l.004-.002.005-.004.004-.002.005-.003.004-.002.005-.003.004-.003c.002 0 .003-.002.005-.003l.004-.002.005-.004a.135.135 0 01.004-.002l.005-.003.004-.002.005-.003a.096.096 0 01.004-.003c.002 0 .003-.002.005-.003l.004-.002.005-.003.004-.003.005-.003.004-.003.005-.002a.156.156 0 00.004-.003l.005-.003.003-.002.006-.003.004-.003c.002 0 .003-.002.005-.003l.004-.002.005-.003.005-.003.004-.003.005-.003.004-.002a.167.167 0 00.005-.004l.004-.002c.002 0 .003-.002.005-.003l.004-.002.005-.003.004-.002.005-.003.004-.003.005-.003a.093.093 0 01.004-.002l.005-.003.004-.003a.156.156 0 01.005-.003l.004-.002.005-.003.004-.003.005-.002.004-.003.005-.003a.05.05 0 00.004-.002l.005-.004.004-.002c.002 0 .003-.002.005-.003l.004-.002.006-.004c.001 0 .002 0 .003-.002l.006-.003.003-.002a.116.116 0 01.005-.003l.004-.003a.104.104 0 01.005-.002l.004-.003c.002 0 .004-.002.005-.003l.004-.002.005-.003.005-.003.003-.002a.175.175 0 01.006-.003l.003-.002.006-.004.004-.002.005-.003.004-.003.005-.002.004-.003.005-.003a.062.062 0 00.003-.002l.006-.003.004-.003.005-.002.005-.003.004-.003c.002 0 .004-.002.005-.003l.004-.002.005-.003.004-.003.005-.002.004-.003c.002 0 .003-.002.005-.003l.005-.002.004-.003a.132.132 0 00.008-.004l.006-.004.004-.003.005-.002.004-.003a.222.222 0 00.005-.003l.004-.002.005-.003.006-.003a.115.115 0 01.003-.002l.006-.004c.002 0 .002 0 .003-.002l.006-.003.003-.002.007-.004.003-.001.006-.004.003-.002a.232.232 0 00.006-.004l.003-.001.005-.003.004-.003.003-.001.015-.01a.074.074 0 01.004-.001l.005-.003.004-.002a2.158 2.158 0 00.021-.012l.003-.002.004-.003a6.382 6.382 0 01.033-.019l.053-.03.01-.006.004-.002.008-.005.003-.002.01-.005.001-.001.01-.006.004-.002.008-.005.003-.001a.82.82 0 00.01-.006h.001l.011-.007.002-.001.01-.005.003-.002.009-.005.002-.001.011-.007.011-.006.002-.002a.464.464 0 01.01-.005h.002l.023-.014.002-.001.01-.005.001-.002.023-.012.002-.001.01-.006h.001l.024-.014.011-.006.002-.001.035-.02.036-.02c.001 0 0 0 0 0l.012-.007.025-.013.012-.007.036-.02a26.477 26.477 0 013.1-1.456l.038-.015.075-.03.013-.004.037-.015.038-.014.037-.015h.002a.502.502 0 01.011-.005l.025-.01h.002a.727.727 0 00.01-.004h.002a2.39 2.39 0 01.024-.01h.001l.011-.004h.002l.024-.01a.498.498 0 01.012-.004l.002-.001.011-.004.013-.005.012-.005h.002l.01-.004h.002l.023-.01h.003a.336.336 0 01.01-.004l.002-.001.024-.009h.002a.255.255 0 00.01-.004l.002-.001.012-.004.011-.005h.003a.548.548 0 00.01-.004l.002-.001.01-.004h.002l.012-.005h.001a.404.404 0 01.01-.004l.003-.001.01-.004h.002l.012-.005h.001a.3.3 0 00.01-.004l.003-.001a.916.916 0 00.01-.003l.002-.001.012-.005a.337.337 0 01.011-.004l.004-.001a.282.282 0 01.008-.003l.003-.001.012-.004.012-.005h.002a.317.317 0 01.01-.004l.002-.001a.318.318 0 01.01-.004h.002l.012-.004.002-.001.01-.004h.002l.01-.004h.002l.012-.005h.002l.01-.004.003-.001.008-.003.003-.002c.004 0 .008-.002.012-.004h.002a.26.26 0 00.02-.008l.005-.001.01-.004h.002l.01-.004.005-.002.007-.002.004-.002a.329.329 0 01.01-.003h.001l.011-.005.004-.001c.003 0 .005-.002.008-.003l.004-.001.008-.003.004-.001a.349.349 0 01.01-.004c.002 0 .003 0 .005-.002l.007-.002.005-.002.007-.002a.456.456 0 01.015-.005l.004-.002.007-.002.005-.002.007-.002.004-.002.01-.003.005-.002a.232.232 0 01.008-.003l.004-.001.007-.003a.084.084 0 01.005-.001l.008-.003.006-.002a.183.183 0 00.008-.003l.005-.002.006-.002c.002 0 .003 0 .005-.002l.007-.002c.002 0 .003 0 .005-.002l.01-.003a.098.098 0 00.005-.002l.006-.002.005-.002.007-.002.005-.002a.299.299 0 00.01-.003l.006-.002.005-.002.006-.002.006-.002a.129.129 0 01.005-.002l.009-.002.007-.003.006-.002.005-.002.006-.002.006-.002.005-.002c.004 0 .008-.002.01-.003l.006-.002.006-.002a.108.108 0 00.011-.004.108.108 0 00.006-.001l.01-.004.005-.002.007-.002.004-.001a.161.161 0 01.007-.003l.004-.001.012-.004.005-.002.006-.002.005-.001.006-.002.005-.002.006-.002a.145.145 0 00.006-.002l.01-.003.005-.002.007-.002.004-.002.007-.002h.002l.015-.006h.003l.008-.003.003-.001.008-.003h.002a2.625 2.625 0 01.018-.006l.007-.003h.004a.654.654 0 01.007-.003l.003-.001.025-.008.003-.001.008-.003h.002l.026-.01h.003c.003 0 .004-.001.007-.003h.003l.026-.009h.002l.008-.003h.003a2.773 2.773 0 00.036-.012l.002-.001a.259.259 0 01.009-.003l.027-.009h.003l.008-.003h.002l.027-.01h.001l.009-.002.002-.001.027-.009.01-.003h.002l.027-.009.01-.003.038-.012h.002l.009-.003.028-.01h.001l.01-.002.029-.01.01-.002.038-.012a5.502 5.502 0 01.04-.012l.038-.012a26.15 26.15 0 013.735-.837l.08-.011.049-.008.04-.005.039-.006.04-.005.01-.002.029-.004.01-.001h.001l.028-.004h.001a.277.277 0 00.01-.002l.038-.005h.002l.038-.005h.002l.009-.001.029-.004h.001l.009-.002h.002l.027-.003h.002l.008-.002h.003a2.77 2.77 0 00.028-.004h.008l.003-.001.008-.001h.002l.017-.002h.002l.008-.002h.003l.008-.001h.003l.017-.002.008-.002h.011l.004-.001.024-.003h.004l.007-.002h.004l.024-.003a.06.06 0 01.004 0l.007-.001.005-.001h.007l.003-.001.013-.002h.005l.006-.001h.005l.007-.002h.004c.005 0 .008 0 .013-.002h.011l.005-.001.006-.001h.005l.01-.002h.006l.007-.001a.107.107 0 00.011-.002h.006l.006-.001.01-.001h.006l.005-.001.007-.001h.005l.006-.002h.006l.01-.001h.006l.006-.002h.011l.008-.002h.006l.008-.001h.005l.007-.002h.005l.007-.001h.007l.009-.002h.011l.006-.002h.011l.01-.002h.006l.007-.001h.005l.007-.002h.004l.011-.001h.005l.007-.001h.005l.007-.002h.005l.01-.001h.003l.01-.002h.011l.005-.001.01-.001h.002l.01-.002h.014l.004-.001.008-.001h.004l.01-.002h.013l.004-.001.009-.001h.003l.011-.002h.012l.004-.001.008-.001h.004a.44.44 0 00.011-.002h.012l.004-.001h.007l.004-.001.011-.001h.003a.338.338 0 00.022-.003h.003l.011-.001h.001l.012-.001h.003l.009-.001h.003l.01-.002h.014l.002-.001.01-.001h.003l.01-.001h.002l.013-.002h.015l.01-.002h.002l.024-.002h.003l.01-.001h.002L33.43 11h.012l.003-.001.024-.002h.002l.01-.001h.003l.011-.001h.001l.013-.002h.014l.01-.002h.015l.012-.002h.012l.002-.001.025-.002h.002l.01-.001h.003l.025-.002.012-.001h.002l.037-.003h.001l.038-.004h.015l.026-.002.013-.001.026-.002.052-.004.039-.003.039-.003c.58-.04 1.161-.06 1.74-.062a.615.615 0 11.004 1.23 24.997 24.997 0 00-12.418 3.337l-.05.03A24.797 24.797 0 0011.6 30.624a24.654 24.654 0 002.513 18.806 24.752 24.752 0 006.566 7.406 24.98 24.98 0 008.617 4.182 25.055 25.055 0 0018.977-2.485l.051-.03a.616.616 0 01.616 1.065h-.001z" fill="#E17B31"/><path opacity=".08" d="M54.943 19.247l-.046-.046a25.157 25.157 0 00-8.372-5.531A25.34 25.34 0 0037 11.826c-3.288 0-6.493.62-9.525 1.844a25.157 25.157 0 00-8.372 5.531 25.01 25.01 0 00-7.41 17.767 24.975 24.975 0 001.834 9.46 25.004 25.004 0 005.53 8.325l.046.046a25.157 25.157 0 008.372 5.531A25.34 25.34 0 0037 62.174c3.288 0 6.493-.62 9.525-1.844a25.157 25.157 0 008.372-5.531 25.01 25.01 0 007.41-17.767 24.974 24.974 0 00-1.834-9.46 25.004 25.004 0 00-5.53-8.325zm.652-.652c10.196 10.196 10.18 26.682-.048 36.858-10.243 10.191-26.85 10.191-37.094 0l-.048-.048c-10.196-10.196-10.18-26.682.048-36.858 10.243-10.191 26.85-10.191 37.094 0l.048.048z" fill="#E17B31"/></svg>