<svg width="74" height="74" fill="none" xmlns="http://www.w3.org/2000/svg"><path d="M42.884 22.652a1.13 1.13 0 011.03.6.884.884 0 01-.241 1.06l-9.121 7.95a2.662 2.662 0 000 4.127l9.12 7.95a.885.885 0 010 1.376 1.236 1.236 0 01-1.577 0l-9.121-7.95a4.44 4.44 0 010-6.878l9.12-7.95a1.2 1.2 0 01.79-.285z" fill="#fff"/><path d="M23.694 14.431l.053-.03a26.381 26.381 0 015.867-2.487 26.164 26.164 0 016.736-1.01 26.45 26.45 0 016.452.678l.024.005.045.01.068.017.185.044.052.013.077.02.084.02a.884.884 0 00.057.015l.07.018.069.018.023.006.096.025h.003l.027.008.168.046.006.001.043.012.012.004.017.004h.002a26.374 26.374 0 018.763 4.313 26.058 26.058 0 016.87 7.735l.02.037a23.903 23.903 0 01.065.11l.004.008v.001a.224.224 0 01.005.008l.002.002c0 .003.002.005.004.008l.005.009.005.009.001.002.004.007.001.001.005.008v.001l.005.008.005.01a.257.257 0 01.005.009l.01.018.002.002.004.007.001.003.004.006.001.002.004.007v.001c.002.003.004.005.005.009l.001.001.005.008.01.018a.663.663 0 00.005.01l.005.008.005.01.006.009.005.009.01.018v.001l.005.008v.001a17.17 17.17 0 01.046.082l.005.01.02.036c.03.052.058.104.087.157l.03.055.004.009a.376.376 0 00.005.01l.005.008.055.102a.382.382 0 01.005.01l.005.008.005.01.014.027.025.047.01.018a.399.399 0 01.004.01l.005.009.01.018.005.01.005.009.005.009.004.009a.677.677 0 00.005.01l.005.009.005.009.005.01.005.008v.001l.004.009a.677.677 0 00.006.01l.004.008.005.01.005.009.004.009.005.01.005.008v.001l.005.009.005.009v.001l.004.008v.001c.002.003.004.005.005.009l.005.009.005.01.004.008v.001c.003.003.004.006.005.009l.005.009v.001l.005.008v.002l.004.007.001.002.004.008v.001a.283.283 0 00.01.017v.002a.313.313 0 01.009.017v.001l.005.008v.001a.298.298 0 01.004.008l.001.002.004.008v.001l.005.008v.002l.005.007v.002l.004.008h.001a.298.298 0 00.004.009v.001l.005.008v.002a.298.298 0 00.004.008h.001l.004.009.005.01.004.008.001.002a.298.298 0 01.005.009l.004.008v.001l.005.008v.001l.004.009.005.009v.001a.298.298 0 00.004.008l.001.002a.298.298 0 01.004.008l.005.009v.001a.283.283 0 01.004.008v.001l.005.009a.298.298 0 00.005.009v.001l.004.008.001.002.004.007v.002a.283.283 0 01.004.008l.001.001.004.008v.001l.005.008v.002a.27.27 0 00.004.008l.001.001.004.008v.002l.005.007v.002l.004.008v.001l.005.008v.002l.004.007.001.002.004.008.004.009.001.001.004.008v.002l.005.007v.002l.004.008v.001l.005.008v.002l.004.008.001.001.004.008v.002l.004.007.001.002.004.008v.001l.005.008v.001l.004.008v.002l.005.008v.001l.004.008v.002l.005.007v.002l.004.007v.002l.005.008v.002l.004.007.001.002.003.007.002.002c0 .003.002.005.003.008l.001.002.004.007v.002l.004.008.001.001.004.008v.002l.004.007.001.002a.54.54 0 01.004.008v.001l.004.008.001.002a.462.462 0 00.004.007v.002l.004.008v.002l.004.007.001.002a.247.247 0 01.004.007v.002l.004.008.001.002.004.007v.002l.004.007.001.002.004.008v.002l.004.007.001.002.004.007v.002a.256.256 0 01.004.008v.002l.005.007v.002l.004.008v.002l.004.007.001.002.004.007v.002l.004.007.001.003.003.007.002.002c0 .003.002.005.003.007l.001.002a.485.485 0 00.003.008l.001.002.004.007v.002l.004.007.001.003.003.007.002.002c0 .003.002.005.003.007l.001.002.003.007.002.003.003.007v.002l.004.007.001.003.003.007.002.002.003.007v.002l.004.007.001.003.003.007.002.002c0 .003.002.005.003.007v.002l.004.007.001.003a.417.417 0 00.005.01l.003.006.001.003.003.006.001.003.003.007.002.003.003.006.001.003.003.007.002.003.002.006.002.003.003.006.001.003.003.007.002.003.002.006.002.003.003.006.001.003.003.007.001.003.003.006.002.003.003.006.001.004.003.006.001.003.003.006.002.004.002.006.002.003.003.006.001.004.003.006.001.003.003.006.002.003.002.006.002.004.003.006.001.003a.36.36 0 01.003.006l.001.003.003.007.002.003.002.006.002.003.003.006.001.004a.11.11 0 01.003.006l.001.003.003.006.002.004.002.005.002.004.003.006.001.003.003.006a.076.076 0 01.004.01l.002.003.002.006.002.004.002.005.002.004.003.006.001.003.003.006.002.004a.33.33 0 01.002.006l.002.003.002.006.002.004.003.006.001.003.003.006.001.004.003.005.001.004.003.006.002.003.002.006.002.004.002.006.002.003a.33.33 0 01.003.006l.001.004.003.005.001.004.003.006.002.004.002.005.002.004.002.006.002.004.002.005.002.004.003.006.001.003.002.006.002.004.003.005.001.004.003.006.002.004.002.005.002.004.002.006.002.004.002.005.002.004.002.005.002.005.002.005.002.004.002.005.002.005.002.005.002.004.003.005c0 .002 0 .003.002.004l.002.006.001.004.003.005.002.004.002.006.002.004.002.005.002.004.002.005.002.005.002.005a.083.083 0 01.004.009l.002.005.002.004.002.005.002.005.002.005.002.004.002.005.002.005.002.005.002.004.002.005a.09.09 0 01.005.01.098.098 0 00.004.009c0 .002 0 .003.002.005 0 .001 0 .003.002.004 0 .002 0 .003.002.005 0 .002 0 .003.002.005 0 .001 0 .003.002.004 0 .002 0 .003.002.005 0 .002 0 .003.002.005l.002.005c0 .001 0 .003.002.004l.002.005c0 .002 0 .003.002.005l.002.005.002.004a.106.106 0 01.004.01l.002.005.002.004.002.005.002.005.002.004.002.005.002.005c0 .002 0 .003.002.004l.002.006.002.004.002.005c0 .002 0 .003.002.004l.002.006.002.004.002.005a.128.128 0 00.004.01c0 .001 0 .002.002.003l.002.006.002.004c0 .002 0 .004.002.005l.001.005.003.005.001.004a.09.09 0 00.003.005l.001.004a.097.097 0 01.004.01l.003.005.001.004.002.006.002.004.002.005.002.004.002.006.002.004.002.005.002.004.002.006.002.004.002.005.002.004.002.006.002.003a.343.343 0 00.004.01l.002.006.002.003.002.006.001.004.003.006.001.003.003.006.001.004.003.006.001.003.003.006v.003a.414.414 0 00.007.016l.002.003.002.007.002.003.002.006.001.003.003.007.001.003.003.006.001.003.003.007.001.003.003.006v.003a.01.01 0 01.003.007l.002.003a.43.43 0 00.002.006l.002.003.002.007.001.003.003.006.001.003.003.007.001.002.003.007v.003l.004.007v.002l.004.007v.003l.003.007.001.002.003.007.001.003a.217.217 0 01.003.007v.002l.004.007v.003l.004.007v.002l.003.007.001.003.003.007.001.002a.221.221 0 01.003.008v.001l.004.008v.002l.004.007v.003l.003.007.001.002.003.007.001.003.003.007v.002l.004.008v.001l.004.008v.002a.627.627 0 00.003.008v.001l.004.008v.002l.004.008v.001a.186.186 0 00.004.008v.002l.003.008v.001l.004.008v.002l.004.008v.001l.004.008v.002l.003.008.004.01.004.009.004.01.003.009.004.01.004.009v.001l.003.008v.002a.292.292 0 01.004.008l.004.01.004.009c0 .004.002.007.003.01l.004.01.004.009.003.01.004.009.007.019.008.019.007.019.007.02a25.802 25.802 0 011.327 4.842l.004.02.001.01.002.009.003.02.002.01.002.01.001.009.002.01a.37.37 0 01.002.01l.001.01.002.01.005.028v.001l.001.01.002.009.002.01.001.01v.001l.002.008v.001l.001.01.002.009v.001l.002.009v.001l.001.008v.002l.002.008v.002l.001.008v.002l.002.008v.002l.001.008v.002l.002.007v.003l.002.007v.003l.001.007v.003l.002.007v.002l.001.007v.003l.002.007v.003l.001.007v.003l.002.007v.003l.001.007v.003l.002.006v.004l.001.006.001.004v.006l.002.003v.006a.074.074 0 01.002.01v.005l.001.005.001.005.001.005v.004l.002.006v.004l.001.005v.005l.002.005v.005l.001.005v.005l.002.005v.01a.097.097 0 01.002.01l.001.005v.004l.002.005a.076.076 0 00.001.01v.005l.002.005v.005l.001.005v.004l.002.006v.004l.001.006v.004l.002.006a.04.04 0 010 .004l.001.006v.003l.002.007v.01l.002.003v.01l.002.007v.003l.001.007v.002l.002.008v.002l.001.009.002.01a.202.202 0 00.001.01l.002.009v.001l.001.009v.001l.002.009.001.01.001.01c.9 6.33-.584 12.783-4.108 18.082l-.005.008-.011.016-.005.009h-.002c0 .003-.003.006-.004.008l-.011.016v.001l-.005.007-.002.002-.004.007-.001.001-.005.007v.001l-.005.007-.001.002-.005.006v.002l-.005.007a.944.944 0 00-.006.008l-.005.008-.001.002-.005.006c0 .001 0 .002-.002.003l-.003.005-.002.003-.004.005-.002.004a.124.124 0 01-.009.013.16.16 0 01-.003.004l-.002.004-.003.003c0 .002-.002.004-.003.005l-.002.004-.003.004-.004.005c0 .002 0 .002-.002.003l-.004.006-.001.002a.177.177 0 01-.004.006l-.002.003-.004.005-.001.003-.005.006v.002l-.005.006-.002.002c0 .002-.002.004-.004.006l-.001.002-.005.008a25.895 25.895 0 01-1.634 2.146l-.026.03v.001l-.006.008-.007.007-.006.008a.433.433 0 00-.006.007h-.001l-.006.008-.007.007v.001l-.006.007-.007.008a.398.398 0 01-.006.007v.001a.013.013 0 00-.006.007h-.001l-.006.007v.001l-.006.007h-.001l-.006.008-.007.007v.001l-.006.007-.006.007-.002.002a.157.157 0 00-.006.007l-.005.006-.002.002-.005.006-.001.001-.005.006-.002.002-.005.006-.001.001-.006.007v.001l-.006.006-.002.002-.005.006-.001.001-.005.006-.002.002-.005.006-.001.002a.13.13 0 01-.005.005l-.002.002a.236.236 0 01-.005.006l-.002.002-.004.005-.002.002-.005.006-.001.002a.268.268 0 00-.005.005l-.002.002-.005.006-.002.002a.27.27 0 01-.006.007l-.005.006-.002.002a.226.226 0 01-.005.006l-.002.002a.114.114 0 01-.004.005l-.002.002-.005.006-.002.002a.245.245 0 00-.005.005l-.001.002a.217.217 0 01-.005.006l-.002.002-.005.005-.002.003-.004.005-.002.002-.005.005c0 .002 0 .001-.002.003a.107.107 0 01-.004.005c-.001 0-.002 0-.003.002 0 .002-.002.003-.004.005l-.002.003a.096.096 0 00-.005.005l-.002.002-.004.005-.002.003-.005.005-.002.002-.004.005-.003.003a.17.17 0 00-.004.005l-.002.002-.005.005c0 .001 0 .002-.002.003l-.004.005-.003.002-.004.005-.002.003-.005.005-.002.002-.004.005-.003.003-.004.005-.002.002-.004.005-.003.003-.004.005-.002.002-.005.005-.002.003-.004.005c-.002 0-.002.001-.003.003l-.004.004-.003.003a.167.167 0 00-.004.005l-.002.002-.004.005-.003.003-.004.004-.003.004a.146.146 0 01-.007.007c0 .002-.002.003-.003.004a.044.044 0 01-.003.004l-.004.004-.003.003-.003.004-.004.004-.003.004-.003.003-.004.004-.003.003-.004.005a.104.104 0 01-.006.007.11.11 0 00-.003.003l-.004.004-.003.004-.003.004-.004.003a.11.11 0 01-.003.004l-.004.004-.003.004-.003.004a1261022086.286 1261022086.286 0 00-.01.01l-.004.004c0 .002-.002.003-.003.004a.116.116 0 00-.003.004l-.004.003a.123.123 0 00-.006.008l-.004.004-.003.003-.004.004-.003.004-.003.004c-.002 0-.002.002-.003.003a.158.158 0 00-.007.007l-.004.005-.003.003-.004.004-.003.004-.003.003-.004.004-.003.004-.003.003-.004.004-.003.004-.004.004-.003.003-.004.004-.002.003-.004.005-.003.003-.004.004a.038.038 0 01-.003.003l-.004.004-.003.004-.004.004-.002.003-.005.004-.002.003-.004.005-.003.003a.083.083 0 00-.007.007l-.004.005-.002.002a.186.186 0 01-.005.005l-.002.003-.005.005-.002.002-.004.005-.003.003-.004.004-.003.003-.004.005-.002.002-.005.005-.002.003a.092.092 0 01-.007.007l-.004.005-.002.002a.237.237 0 01-.005.005l-.002.002a.246.246 0 00-.005.006l-.002.002a.104.104 0 01-.005.005l-.002.003-.005.004-.002.003-.005.005-.002.002-.004.005-.002.002a.207.207 0 01-.005.005l-.002.003-.005.005-.002.002-.005.005-.002.002-.005.006-.002.002-.004.005-.003.002a.218.218 0 01-.004.005l-.002.003a.237.237 0 00-.005.005l-.002.002-.005.005-.002.002a.237.237 0 00-.005.005l-.002.003-.005.005-.002.002-.005.005-.002.002a.13.13 0 00-.005.005c0 .001 0 .002-.002.002l-.004.006-.002.002-.005.005-.002.002a.237.237 0 01-.005.005l-.002.002-.005.006-.002.002-.005.005-.002.002a.276.276 0 00-.006.007l-.006.006-.001.002-.006.005-.001.002-.005.005-.002.002-.006.006-.001.002a.28.28 0 01-.005.005l-.002.002-.005.006h-.002l-.005.007-.002.001-.005.006-.002.002-.005.005-.002.002-.005.006-.001.001-.006.006-.002.002-.005.005-.002.002-.005.006-.001.001-.006.006-.001.002-.006.005-.001.002-.006.005v.002l-.006.006-.002.001a.363.363 0 01-.006.006v.001l-.006.006-.002.002-.005.006-.002.001-.005.006-.001.001-.006.006-.001.001-.006.007h-.001L55.87 55h-.001l-.006.007h-.001l-.006.008-.007.006-.001.002-.006.006-.007.007v.001l-.007.007-.007.007-.007.007-.007.007-.007.008-.007.007-.007.007-.007.007-.014.015-.007.007-.007.007-.007.008a.218.218 0 00-.007.006l-.001.001-.006.007-.007.007a1.849 1.849 0 00-.015.015l-.013.014-.014.014-.029.03-.014.014-.014.014-.014.014-.014.015-.029.028a26.016 26.016 0 01-2.267 2.036l-.032.026-.008.006-.056.045-.065.05-.016.013a1.76 1.76 0 00-.016.013l-.009.006-.008.007-.008.006-.008.006-.008.006-.008.007-.008.006-.008.006-.008.007-.008.006-.009.006-.007.006-.001.001-.008.006a.489.489 0 00-.008.006l-.008.006-.008.006v.001l-.008.006-.008.006h-.001l-.008.007-.008.006-.008.006-.008.006-.008.006v.001l-.008.005-.001.002-.007.005h-.001l-.007.006-.002.001-.006.005-.002.001a.438.438 0 01-.016.013l-.007.005h-.001l-.008.007-.008.006a.464.464 0 01-.008.006l-.008.006a.372.372 0 01-.009.007l-.007.005-.001.002-.007.005h-.002l-.007.006a.45.45 0 00-.008.006v.001l-.008.005-.001.001-.007.006h-.002l-.006.006h-.002l-.007.006-.001.001-.007.005-.001.001a.287.287 0 01-.008.007c-.003.002-.005.002-.007.005h-.002a.39.39 0 00-.006.006h-.002a.287.287 0 01-.007.006l-.001.001a.172.172 0 00-.007.005l-.001.001-.007.005-.002.001-.007.006a.166.166 0 00-.008.006l-.001.001-.007.005-.001.001-.007.005-.002.001a.172.172 0 01-.015.011l-.001.002-.007.005h-.002l-.006.006h-.002a.187.187 0 00-.007.006v.001a.181.181 0 01-.008.005l-.001.001-.007.005-.002.001-.007.006-.008.006h-.001l-.007.006h-.001l-.007.006-.002.001a.295.295 0 00-.007.005l-.001.001-.007.005-.002.002-.006.004-.002.002c-.003.002-.004.002-.006.005h-.002l-.007.006-.002.001-.006.005-.002.001-.006.005-.002.001-.007.005-.001.001-.007.005-.002.002-.006.004-.002.002-.007.004-.001.002-.007.005h-.002l-.006.006-.002.001a.285.285 0 00-.008.006l-.007.005-.002.001-.007.005v.001l-.008.005-.001.001-.007.005-.002.001a.377.377 0 01-.006.005l-.002.002-.007.004-.001.002-.007.005h-.002l-.006.006h-.002l-.007.006h-.001a.377.377 0 00-.007.006l-.002.001-.006.005-.002.001-.007.005-.002.001-.006.005-.002.001-.007.005-.001.001-.007.005-.002.001-.006.005-.002.002-.007.004-.002.002-.006.004-.002.002-.006.004-.002.002-.007.004-.002.002-.006.004-.002.002-.006.004-.003.002-.006.005-.002.001-.006.005-.002.001-.007.005-.002.001-.006.005-.002.001-.007.005-.002.001a4837759377.43 4837759377.43 0 01-.008.006l-.006.005-.003.001-.006.005-.002.001-.006.005-.002.001-.007.005-.002.001-.006.005s-.002 0-.002.002a.333.333 0 01-.007.004l-.002.001-.006.005-.002.001-.006.005-.002.001-.007.005-.002.002-.006.004-.002.001-.007.005-.002.001-.006.005-.002.001-.007.005-.002.002-.006.004-.002.001a.344.344 0 01-.007.005l-.002.002a.333.333 0 01-.006.004l-.002.001-.006.005-.003.002-.006.004-.002.001-.006.005-.003.002-.006.004-.002.001-.006.005c-.001 0-.002 0-.003.002a.21.21 0 01-.006.004l-.002.001-.006.005-.003.001-.006.005-.002.001-.006.005-.003.001-.006.005-.002.001-.006.004a.046.046 0 01-.003.002l-.006.004-.002.002-.006.004-.003.002-.006.004-.002.002a.291.291 0 01-.009.006l-.006.004-.002.002a.222.222 0 01-.006.004l-.003.002-.006.004-.002.002a.291.291 0 01-.006.004l-.003.002-.006.004-.003.002a.291.291 0 01-.008.006l-.006.004-.003.002-.005.004-.003.002-.006.004-.003.001a.302.302 0 00-.005.005l-.004.002a.272.272 0 01-.005.003l-.003.002-.006.004-.003.002-.005.004-.003.002-.006.004-.003.002-.005.004-.003.002a.127.127 0 01-.006.004l-.003.002a.312.312 0 01-.006.004l-.002.002-.006.004-.003.002-.006.004-.002.001a.333.333 0 00-.006.005l-.003.001-.006.005-.002.001-.006.004-.003.002-.006.004-.002.002-.007.004-.002.002-.006.004-.003.002a.122.122 0 01-.008.006l-.006.004c-.001 0-.002 0-.003.002l-.006.004-.003.001-.006.005-.002.001-.006.004-.003.002-.006.004-.002.002-.006.004-.003.002-.006.004-.003.002-.006.004-.003.002-.005.004-.003.001-.006.004-.003.002-.005.004-.003.002-.006.004-.003.002a.117.117 0 01-.006.004l-.002.002-.006.004-.003.002-.006.004-.002.001-.007.004-.002.002-.006.004a.046.046 0 00-.003.002l-.006.004-.003.002-.006.004-.002.002-.006.004c-.001 0-.002 0-.003.002l-.006.004-.002.001-.006.004-.003.002-.006.004-.003.002-.006.004-.003.002-.005.004-.003.002-.006.004c-.001 0-.002 0-.003.002l-.006.003-.003.002-.005.004c-.002 0-.002.001-.003.002l-.006.004-.003.002-.006.004a.056.056 0 00-.003.002l-.005.003-.004.002-.005.004-.003.002-.006.004-.003.002-.005.004-.004.002-.005.004c-.001 0-.002 0-.003.002a.192.192 0 00-.009.005l-.006.004-.003.002-.005.004-.003.002-.006.004c-.001 0-.002 0-.003.002l-.006.003-.003.002-.005.004-.004.002-.005.004a.063.063 0 01-.003.002l-.006.004c-.001 0-.002 0-.003.002l-.006.003a.068.068 0 00-.003.002l-.005.004-.004.002-.005.004-.003.002a.283.283 0 01-.006.003l-.003.002-.005.004-.004.002a.172.172 0 01-.005.004l-.003.002-.006.004-.003.002-.006.003a.079.079 0 00-.003.002l-.005.004-.004.002-.005.004-.003.002-.006.003-.003.003-.006.003-.003.002a.283.283 0 00-.005.004l-.004.002-.005.004-.003.002-.006.003-.003.002-.006.004-.003.002-.006.004-.003.002-.005.003a.079.079 0 00-.003.002l-.006.004-.003.002-.006.004-.003.002-.006.004s-.002 0-.003.002l-.006.003-.002.002-.006.004c-.002 0-.002.001-.003.002l-.006.004-.003.001-.006.004a.05.05 0 00-.003.002l-.006.004-.003.002-.006.004s-.002 0-.003.002c-.002 0-.003.002-.005.003-.002 0-.002.002-.003.002l-.006.004-.003.002-.006.004c-.001 0-.002 0-.003.002l-.006.003-.003.002-.006.004-.003.002a.192.192 0 01-.005.003l-.004.002-.005.004-.003.002-.006.004-.003.002-.006.003-.003.002-.006.004a519912392.063 519912392.063 0 01-.009.006l-.003.002-.005.003-.004.002-.005.004-.003.002-.006.004-.003.002-.006.003-.003.002-.006.004-.003.002-.006.003-.003.002-.005.004-.004.002-.005.004-.004.002-.005.003-.004.003a.075.075 0 01-.005.003l-.004.002-.005.003-.003.003-.006.003-.003.002-.006.004a.101.101 0 00-.003.002l-.005.003-.004.002-.005.004-.004.002-.005.003-.004.003-.005.003-.004.002-.005.004-.004.002-.005.003-.004.002-.005.004-.003.002-.006.003-.003.002-.006.004-.003.002-.005.003a.077.077 0 01-.004.003l-.005.003-.004.002-.005.003-.004.003-.005.003-.004.002-.005.004-.004.002-.005.003-.004.002-.005.004a.096.096 0 00-.003.002l-.006.003-.003.002a.274.274 0 00-.006.004l-.004.002-.005.003-.003.002-.006.004-.004.002-.005.003-.003.003a.146.146 0 00-.006.003l-.003.002-.006.003a.101.101 0 01-.008.006l-.004.002-.005.003-.004.003-.005.003-.004.002-.005.004-.004.002-.005.003-.004.002a.156.156 0 01-.005.003l-.004.003-.005.003-.004.002-.005.004-.004.002-.005.003-.004.003-.005.002a.141.141 0 01-.004.003c-.002 0-.004.002-.005.003l-.004.002-.005.004-.004.002-.005.003-.004.003-.005.002-.004.003c-.002 0-.004.002-.005.003-.002 0-.003.002-.004.003l-.005.002-.005.003-.004.003-.004.002-.005.003-.004.003c-.002 0-.003.001-.005.003l-.004.002-.005.003-.004.003c-.002 0-.003.002-.005.003l-.005.003-.004.002-.005.003-.004.003c-.002 0-.004.002-.005.003l-.004.002-.006.003c-.001.001-.001.002-.003.002a.139.139 0 01-.005.003l-.004.003c-.002 0-.003.002-.005.003l-.004.002-.005.003-.004.003c-.002 0-.003.002-.005.003l-.004.002a.156.156 0 01-.006.004c-.001 0-.002 0-.003.002-.002 0-.003.002-.005.003l-.004.002-.005.003-.004.002a.139.139 0 01-.005.004l-.004.002a.146.146 0 01-.005.003l-.004.002-.005.003-.004.003a.171.171 0 01-.006.003l-.003.002-.006.003-.003.003-.005.002-.005.003-.004.003-.005.002-.004.003-.005.003-.004.002-.005.003-.003.002-.006.004-.003.001-.006.004-.004.003-.005.002-.005.003-.004.003-.004.002a.129.129 0 00-.005.003l-.004.002-.005.004-.004.002-.005.003-.005.003-.004.002-.005.003-.004.003c-.002 0-.004.002-.005.003l-.005.002-.004.003-.005.002-.004.003-.005.003-.004.002-.005.003-.003.002-.006.004-.004.002a.222.222 0 00-.005.003l-.004.002a.129.129 0 00-.005.003l-.004.003c-.002 0-.004.002-.005.003l-.006.003-.003.002-.006.003-.003.002-.006.004-.004.002-.006.003-.003.002a.219.219 0 01-.006.004l-.003.001a.232.232 0 00-.009.006c-.002 0-.003.002-.005.003a.084.084 0 01-.007.004l-.015.009-.004.002-.006.003a.145.145 0 01-.003.002l-.006.003-.015.01h-.003a.135.135 0 00-.004.003l-.005.003-.028.016-.053.03-.01.007-.004.002-.008.004-.003.002-.01.006h-.001l-.011.007-.003.001a.365.365 0 01-.008.005l-.003.002-.01.005-.001.001-.012.007h-.002l-.009.006-.003.002-.009.005h-.002l-.011.007-.011.007-.003.001-.01.005-.001.001-.023.013-.002.002-.01.005H49.8l-.023.014h-.002l-.01.007h-.002l-.023.014a.617.617 0 01-.012.006l-.036.02h-.001l-.035.02-.001.001-.011.006h-.001l-.024.014-.012.007-.036.02a26.462 26.462 0 01-3.1 1.456l-.038.015-.075.03c-.005 0-.009.002-.013.004l-.037.014h-.001l-.037.015h-.001l-.036.014h-.002l-.011.005h-.001a6.382 6.382 0 00-.024.01h-.002a.326.326 0 00-.01.004h-.002a2.39 2.39 0 01-.024.01h-.001l-.011.005h-.002a2.39 2.39 0 01-.024.01h-.001a.781.781 0 01-.011.004h-.002l-.011.005-.013.005-.012.004h-.002l-.01.005h-.002a6.029 6.029 0 00-.023.009l-.003.001a.336.336 0 01-.01.004h-.002a2.216 2.216 0 01-.024.01h-.002l-.01.004h-.002l-.012.005-.012.004-.002.001a.548.548 0 00-.01.004h-.002l-.01.004-.002.001a.552.552 0 00-.012.004h-.002l-.01.005h-.002l-.01.004h-.002a.41.41 0 00-.012.005h-.001a.3.3 0 00-.01.005h-.003l-.01.004h-.002a.449.449 0 00-.023.008c-.001.002-.003.002-.004.002l-.008.004h-.003a.52.52 0 01-.012.005l-.012.004-.002.001a.317.317 0 01-.01.003l-.003.002-.01.003h-.001l-.012.005h-.002l-.01.004-.003.001-.009.003-.002.001a.535.535 0 01-.012.005h-.002a.373.373 0 00-.01.004H45.7l-.008.004-.004.001a.382.382 0 00-.011.004h-.002a.999.999 0 00-.01.004l-.003.002-.008.002-.004.002a.33.33 0 00-.01.004h-.003l-.01.004-.004.001-.007.003-.004.001a.243.243 0 01-.01.003l-.002.001-.01.004-.005.002-.007.002-.005.002-.008.002-.003.002a.021.021 0 00-.01.004l-.005.001-.007.002-.005.002-.007.003a.073.073 0 01-.004.001l-.011.004-.004.001-.007.003-.005.002-.007.002c-.002 0-.003 0-.005.002l-.009.003c-.002 0-.003 0-.005.002l-.008.002a.084.084 0 01-.004.002l-.007.002a.084.084 0 01-.005.002c-.003 0-.005.002-.008.003l-.006.002-.008.002-.005.002-.006.002-.005.002-.007.002-.005.002-.01.004a.098.098 0 00-.011.003l-.006.002-.006.002-.005.002a.299.299 0 00-.01.004c-.002 0-.004 0-.006.002l-.005.001-.006.002-.006.002-.006.002-.008.003-.007.002-.006.002-.005.002-.006.002-.006.002-.006.002-.01.004a.098.098 0 00-.005.001l-.006.002-.005.002-.006.002-.006.002a.455.455 0 01-.01.003l-.005.002-.007.002-.005.002a.161.161 0 01-.006.002l-.005.002c-.004 0-.008.002-.012.004l-.004.001-.006.002-.005.002-.006.002-.005.002c-.003 0-.004 0-.006.002a.145.145 0 00-.006.002c-.004 0-.007.002-.01.003l-.005.002-.007.002-.004.001c-.003 0-.005.002-.007.003h-.002l-.015.005-.004.001-.007.002-.003.002-.008.002-.002.001-.015.005h-.003c-.002.002-.005.002-.007.003l-.004.001-.007.003h-.003l-.025.009h-.003a.34.34 0 01-.008.003l-.003.001-.025.009h-.003l-.008.003h-.002l-.026.01h-.002l-.008.002-.003.001a2.773 2.773 0 00-.027.009l-.009.003h-.002l-.009.003-.028.01h-.002l-.008.003h-.002l-.027.009h-.002l-.008.003h-.002l-.027.01h-.001a.221.221 0 00-.01.003l-.029.009-.009.002h-.001a4.041 4.041 0 01-.037.012l-.002.001-.009.003-.028.009h-.002a1.027 1.027 0 01-.009.003l-.029.009-.01.003-.038.012h-.001a5.502 5.502 0 00-.038.011h-.001l-.038.012a26.036 26.036 0 01-3.735.837l-.08.012-.049.007-.04.006a5.248 5.248 0 01-.039.005l-.04.006-.01.001-.029.004-.01.002h-.001l-.028.004h-.001a.277.277 0 00-.01.001l-.039.005h-.001a4.863 4.863 0 01-.038.006h-.011l-.001.001-.028.004h-.001l-.01.001-.028.004h-.002l-.008.001h-.003a2.77 2.77 0 00-.026.004h-.002l-.009.001h-.003l-.008.002h-.002l-.016.002h-.002l-.008.001h-.003l-.008.002h-.003l-.017.002-.008.001h-.004l-.007.001h-.004l-.024.004h-.004l-.007.001h-.004l-.025.004h-.01l-.005.002h-.01l-.014.002h-.004l-.007.002h-.005l-.006.001h-.004l-.013.002h-.004l-.007.001h-.005l-.006.002h-.005l-.01.001-.007.001h-.006l-.005.001-.006.001h-.006l-.006.002h-.01l-.006.001h-.005l-.007.002h-.011l-.006.002h-.01l-.006.001-.006.001h-.006l-.005.001-.008.001h-.006l-.009.002h-.005l-.006.001h-.005l-.007.002h-.008l-.008.001h-.005l-.006.001-.006.001h-.007l-.004.001-.011.001h-.005l-.007.002h-.005l-.007.001h-.005l-.01.002h-.012l-.005.001-.007.001h-.005l-.01.002h-.003l-.01.001h-.004l-.007.001h-.005l-.01.002h-.002a.41.41 0 00-.01.001h-.005l-.008.001h-.004l-.009.002h-.003l-.011.001h-.004l-.008.001h-.004l-.009.002h-.003l-.011.001h-.004l-.008.001h-.005l-.008.002h-.003l-.012.001h-.003l-.008.001a.06.06 0 01-.005 0l-.008.001h-.004l-.01.002h-.003a.338.338 0 00-.022.002h-.004l-.01.002h-.013l-.003.001h-.01l-.003.001-.01.001h-.002l-.012.001h-.002l-.01.002h-.015l-.012.002h-.001l-.01.001h-.004l-.01.001h-.002l-.024.003h-.013l-.002.001-.024.002H39.2l-.01.001h-.002l-.025.003h-.014l-.011.002h-.001l-.013.001-.012.001h-.002l-.011.001h-.002l-.012.001-.012.001h-.002l-.01.001h-.003l-.024.003h-.015c-.008.002-.017.002-.025.003h-.014l-.037.004h-.002l-.038.003-.013.001-.026.002h-.013a2.1 2.1 0 01-.026.003l-.052.004-.039.002-.039.003c-.58.04-1.161.06-1.74.062a.615.615 0 01-.004-1.23 25.002 25.002 0 0012.418-3.337l.05-.029a24.797 24.797 0 0011.614-15.13A24.653 24.653 0 0058.52 24.57a24.754 24.754 0 00-6.566-7.406 24.978 24.978 0 00-8.617-4.182 25.055 25.055 0 00-18.978 2.485l-.05.03a.616.616 0 01-.616-1.065z" fill="#E17B31"/><path opacity=".08" d="M54.943 19.247l-.046-.046a25.157 25.157 0 00-8.372-5.531A25.34 25.34 0 0037 11.826c-3.288 0-6.493.62-9.525 1.844a25.157 25.157 0 00-8.372 5.531 25.01 25.01 0 00-7.41 17.767 24.975 24.975 0 001.834 9.46 25.004 25.004 0 005.53 8.325l.046.046a25.157 25.157 0 008.372 5.531A25.34 25.34 0 0037 62.174c3.288 0 6.493-.62 9.525-1.844a25.157 25.157 0 008.372-5.531 25.008 25.008 0 005.552-8.312 24.974 24.974 0 001.859-9.455 24.975 24.975 0 00-1.835-9.46 25.004 25.004 0 00-5.53-8.325zm.652-.652c10.196 10.196 10.18 26.682-.048 36.858-10.243 10.191-26.85 10.191-37.094 0l-.048-.048c-10.196-10.196-10.18-26.682.048-36.858 10.243-10.191 26.85-10.191 37.094 0l.048.048z" fill="#E17B31"/></svg>