<svg width="41" height="41" fill="none" xmlns="http://www.w3.org/2000/svg"><rect x=".5" y=".5" width="40" height="40" rx="20" stroke="#C1C0C1"/><path opacity=".7" d="M23.461 28.488c-2.152-1.207-4.098-2.834-5.747-4.805-1.753-1.853-3.19-4.052-4.239-6.488l-.083-.214a3.877 3.877 0 01-.39-1.803c.015-.63.18-1.243.478-1.776.521-.979 1.96-2.402 3.024-2.402h.083c.427.057.82.285 1.11.641l.103.116a14.45 14.45 0 011.953 3.073l.02.08c.049.3.041.608-.022.904a2.33 2.33 0 01-.343.818l-.088.173c-.16.333-.19.476-.14.643a8.19 8.19 0 001.587 2.753c.691.785 1.52 1.4 2.432 1.808a.379.379 0 00.15.033c.197-.03.384-.115.544-.248l.198-.127c.3-.223.647-.35 1.006-.368.123 0 .246.016.367.046.947.532 1.82 1.218 2.59 2.034l.219.232.078.088c.322.337.523.794.566 1.287.037 1.184-1.233 2.915-2.082 3.458a2.42 2.42 0 01-1.56.556 3.95 3.95 0 01-1.814-.512zm-6.957-16.17h-.069c-.811.362-1.505.995-1.987 1.813l-.062.104a2.884 2.884 0 00.157 2.435l.083.22a21.968 21.968 0 004.023 5.98 19.425 19.425 0 005.282 4.41l.17.085a2.7 2.7 0 001.154.309c.342.006.677-.113.954-.34l.04-.028c.312-.277.599-.587.857-.926.33-.357.557-.818.652-1.322a.835.835 0 00-.23-.435l-.064-.071a16.246 16.246 0 00-2.236-1.919.44.44 0 00-.103-.011 1.24 1.24 0 00-.603.278l-.195.125a1.83 1.83 0 01-.96.337 1.539 1.539 0 01-.586-.128 8.291 8.291 0 01-2.835-2.106 9.534 9.534 0 01-1.849-3.207 2.259 2.259 0 01-.075-.985c.049-.33.169-.642.35-.907l.085-.178c.167-.347.206-.494.174-.674a18.156 18.156 0 00-1.613-2.43l-.134-.163-.072-.08a.744.744 0 00-.266-.18l-.042-.006zm8.596 5.868a3.352 3.352 0 00-.78-1.662 2.765 2.765 0 00-1.473-.884.582.582 0 01-.346-.244.718.718 0 01-.12-.44.701.701 0 01.164-.42.562.562 0 01.369-.199h.077l.078.012c.787.172 1.51.606 2.076 1.245a4.72 4.72 0 011.098 2.342.73.73 0 01-.089.493.59.59 0 01-.37.28.519.519 0 01-.438-.1.627.627 0 01-.16-.183.703.703 0 01-.085-.238l-.001-.002zm2.741-.06c-.143-1.428-.71-2.76-1.608-3.78-.898-1.013-2.076-1.653-3.339-1.814a.57.57 0 01-.355-.215.707.707 0 01-.148-.422.715.715 0 01.13-.43.579.579 0 01.345-.234l.076-.011h.08c1.526.194 2.948.967 4.033 2.191 1.085 1.232 1.769 2.84 1.941 4.563a.718.718 0 01-.123.484.572.572 0 01-.39.244h-.066a.546.546 0 01-.385-.165.685.685 0 01-.191-.411z" fill="#fff"/></svg>