<svg width="29" height="30" viewBox="0 0 29 30" fill="none" xmlns="http://www.w3.org/2000/svg">
<path d="M28.3711 24.1406L28.1758 25.2539C27.707 25.293 27.2969 25.3125 26.9453 25.3125C26.4375 25.3125 25.8255 25.2734 25.1094 25.1953C23.8854 25.0651 23.1107 25 22.7852 25C22.2383 25 21.3984 25.0846 20.2656 25.2539C20.6693 24.2383 21.0078 23.1706 21.2812 22.0508C21.4766 21.2565 21.6849 19.8893 21.9062 17.9492C20.3828 17.9362 18.0195 17.9688 14.8164 18.0469C11.5091 23.099 9.08073 26.2695 7.53125 27.5586C5.99479 28.8607 4.52995 29.5117 3.13672 29.5117C2.40755 29.5117 1.86719 29.3685 1.51562 29.082C1.15104 28.8086 0.96875 28.4505 0.96875 28.0078C0.96875 27.6693 1.07292 27.3893 1.28125 27.168C1.48958 26.9466 1.75 26.8359 2.0625 26.8359C2.24479 26.8359 2.49219 26.8685 2.80469 26.9336C3.58594 27.1159 4.10677 27.207 4.36719 27.207C5.23958 27.207 6.20312 26.7122 7.25781 25.7227C8.97656 24.1081 11.5156 20.7227 14.875 15.5664C18.6771 9.73307 21.7565 5.48828 24.1133 2.83203C20.8971 3.11849 18.8919 3.39193 18.0977 3.65234C17.0039 4.00391 16.1836 4.52474 15.6367 5.21484C15.0898 5.90495 14.8164 6.60807 14.8164 7.32422C14.8164 7.55859 14.901 7.89062 15.0703 8.32031C15.2526 8.80208 15.3438 9.15365 15.3438 9.375C15.3438 9.66146 15.2331 9.91536 15.0117 10.1367C14.7904 10.3581 14.5234 10.4688 14.2109 10.4688C13.7682 10.4688 13.4102 10.306 13.1367 9.98047C12.8763 9.64193 12.7461 9.14062 12.7461 8.47656C12.7461 7.53906 12.987 6.63411 13.4688 5.76172C13.9635 4.8763 14.6667 4.14062 15.5781 3.55469C16.4896 2.95573 17.6289 2.5 18.9961 2.1875C19.6992 2.01823 20.9362 1.86849 22.707 1.73828C24.2435 1.60807 25.207 1.48438 25.5977 1.36719C26.2096 1.19792 26.7956 0.865885 27.3555 0.371094C26.9648 1.97266 26.6849 3.3724 26.5156 4.57031L24.9922 15.8594L24.1133 23.9453C25.0768 24.1927 25.9427 24.3164 26.7109 24.3164C27.2188 24.3164 27.7721 24.2578 28.3711 24.1406ZM22.082 16.5039C22.707 11.2174 23.332 7.35677 23.957 4.92188C22.3034 7.10938 21.2812 8.48958 20.8906 9.0625L15.8711 16.5039C16.9518 16.543 18.4948 16.5625 20.5 16.5625C20.9948 16.5625 21.5221 16.543 22.082 16.5039Z" fill="white"/>
</svg>
