<svg width="41" height="41" viewBox="0 0 41 41" fill="none" xmlns="http://www.w3.org/2000/svg">
<rect x="0.5" y="0.5" width="40" height="40" rx="20" stroke="#C1C0C1"/>
<path opacity="0.7" d="M23.4614 28.4883C21.3086 27.281 19.3626 25.654 17.7138 23.6826C15.961 21.8296 14.5244 19.631 13.475 17.1955L13.3917 16.9814C13.1205 16.4306 12.9857 15.8078 13.0012 15.1782C13.0168 14.5487 13.1822 13.9353 13.4801 13.4023C14.0012 12.4233 15.4402 11 16.504 11H16.5873C17.0135 11.0573 17.4074 11.2847 17.6973 11.6411L17.8001 11.7568C18.5686 12.6799 19.2252 13.7133 19.753 14.8302L19.7736 14.9101C19.8219 15.21 19.8143 15.5179 19.7514 15.8143C19.6884 16.1107 19.5713 16.3892 19.4076 16.632L19.3203 16.8055C19.1599 17.1376 19.1291 17.2811 19.1805 17.4478C19.5351 18.4788 20.0751 19.4162 20.7667 20.2012C21.4582 20.9861 22.2865 21.6017 23.1993 22.0093C23.2472 22.0304 23.298 22.0413 23.3494 22.0417C23.5462 22.0117 23.7331 21.9266 23.8931 21.7941L24.0915 21.6668C24.391 21.4445 24.7383 21.3174 25.0967 21.2988C25.2201 21.2997 25.3431 21.3152 25.4636 21.3451C26.4107 21.8771 27.2833 22.5625 28.0538 23.3794L28.2727 23.6109L28.3508 23.6988C28.6725 24.0358 28.8739 24.4933 28.9172 24.9856C28.9542 26.1705 27.6838 27.9005 26.8348 28.4444C26.3812 28.8125 25.8347 29.0072 25.2756 28.9998C24.645 28.98 24.0258 28.8055 23.4614 28.4883ZM16.504 12.318H16.4352C15.6238 12.6796 14.9304 13.3125 14.4483 14.1313L14.3856 14.2355C14.2323 14.6246 14.1665 15.0503 14.1939 15.4749C14.2213 15.8995 14.3412 16.31 14.5429 16.6701L14.6262 16.89C15.6534 19.1279 17.0141 21.1506 18.6491 22.8703C20.1699 24.6729 21.9571 26.1646 23.9311 27.2791L24.1007 27.3647C24.4631 27.5541 24.8557 27.6592 25.255 27.6737C25.5971 27.6795 25.9317 27.5605 26.2088 27.3346L26.2489 27.3057C26.5609 27.0295 26.848 26.7194 27.1061 26.38C27.4359 26.0228 27.6629 25.5624 27.7578 25.0585C27.7246 24.8896 27.6443 24.7371 27.5286 24.6234L27.4638 24.5516C26.7705 23.839 26.0223 23.1969 25.2283 22.633C25.1945 22.6251 25.16 22.6213 25.1255 22.6215C24.9067 22.6556 24.6991 22.7515 24.5222 22.9003L24.3269 23.0253C24.0379 23.2286 23.7072 23.3445 23.3669 23.3621C23.1664 23.3584 22.968 23.3149 22.781 23.2336C21.7172 22.7595 20.7519 22.0427 19.9459 21.1285C19.1398 20.2143 18.5104 19.1222 18.0972 17.921C18 17.6047 17.9744 17.2661 18.0224 16.9358C18.0705 16.6056 18.1909 16.2939 18.3726 16.0291L18.4569 15.8509C18.6244 15.5037 18.6625 15.3567 18.6306 15.1774C18.1542 14.3181 17.6148 13.5053 17.0179 12.7473L16.8843 12.5842L16.8124 12.5043C16.7357 12.424 16.6451 12.3625 16.5462 12.3238L16.504 12.318ZM25.0998 18.186C24.9931 17.5569 24.7214 16.9781 24.3198 16.5244C23.9183 16.0707 23.4052 15.7627 22.8468 15.6403C22.7091 15.6082 22.5862 15.5215 22.5006 15.396C22.4149 15.2704 22.3723 15.1143 22.3804 14.9563C22.3885 14.7982 22.4468 14.6487 22.5447 14.5351C22.6426 14.4215 22.7735 14.3512 22.9136 14.3373H22.9907L23.0688 14.3489C23.8558 14.5209 24.5789 14.9547 25.1447 15.5941C25.7105 16.2336 26.093 17.0494 26.2427 17.9361C26.2721 18.1071 26.2403 18.2842 26.1543 18.429C26.0682 18.5738 25.9349 18.6744 25.7833 18.7091C25.7081 18.7255 25.6308 18.7251 25.5557 18.7078C25.4807 18.6905 25.4094 18.6567 25.346 18.6083C25.2826 18.5599 25.2283 18.4979 25.1862 18.4259C25.1441 18.3538 25.1151 18.2731 25.1008 18.1883L25.0998 18.186ZM27.841 18.1259C27.6981 16.6981 27.1313 15.3665 26.2325 14.3465C25.3346 13.3331 24.1574 12.6933 22.8941 12.5321C22.7569 12.51 22.6311 12.4339 22.539 12.3172C22.447 12.2006 22.3946 12.051 22.3913 11.895C22.388 11.739 22.4339 11.5867 22.5208 11.4652C22.6078 11.3438 22.7302 11.2609 22.8663 11.2314L22.9424 11.2199H23.0215C24.5478 11.4143 25.97 12.1871 27.0547 13.4115C28.1397 14.643 28.8239 16.2506 28.9963 17.9743C29.0137 18.1475 28.9693 18.3213 28.873 18.4578C28.7766 18.5942 28.6362 18.6821 28.4824 18.7021C28.4608 18.7021 28.4382 18.7021 28.4166 18.7021C28.2748 18.7016 28.138 18.6427 28.032 18.5366C27.926 18.4305 27.8581 18.2844 27.841 18.1259Z" fill="white"/>
</svg>
