<svg width="7" height="14" viewBox="0 0 7 14" fill="none" xmlns="http://www.w3.org/2000/svg">
<path d="M0.617255 13.9997C0.500716 14.0034 0.385541 13.9717 0.284774 13.9081C0.184006 13.8445 0.101671 13.7516 0.0470927 13.6399C0.000901584 13.533 -0.011017 13.4123 0.0132286 13.2972C0.0374741 13.182 0.0964946 13.079 0.180923 13.0043L5.22501 8.23735C5.3944 8.08766 5.53093 7.89896 5.6247 7.68495C5.71847 7.47093 5.76712 7.23697 5.76712 7.00003C5.76712 6.76309 5.71847 6.52913 5.6247 6.31511C5.53093 6.1011 5.3944 5.9124 5.22501 5.76271L0.180924 0.995726C0.124397 0.945853 0.0788299 0.88295 0.047534 0.81159C0.0162381 0.740229 -1.5626e-08 0.662205 -1.37615e-08 0.583187C-1.18969e-08 0.50417 0.0162381 0.426145 0.047534 0.354784C0.0788299 0.283424 0.124397 0.220521 0.180924 0.170648C0.303577 0.0603603 0.457913 1.08054e-08 0.617255 1.45654e-08C0.776598 1.83254e-08 0.930934 0.0603603 1.05359 0.170648L6.09767 4.93763C6.37966 5.18732 6.60692 5.50187 6.76298 5.85852C6.91904 6.21517 7 6.60498 7 6.99973C7 7.39448 6.91904 7.78429 6.76298 8.14094C6.60692 8.49759 6.37966 8.81214 6.09767 9.06183L1.05359 13.8288C0.931841 13.9408 0.776924 14.0015 0.617255 13.9997Z" fill="black"/>
</svg>
